<svg width="1918" height="404" viewBox="0 0 1918 404" fill="none" xmlns="http://www.w3.org/2000/svg">
<path d="M957.5 2C727.669 239.928 620.549 386.611 0 385.718" stroke="white" stroke-width="5"/>
<line x1="904.242" y1="396.822" x2="904.242" y2="55.0492" stroke="white" stroke-width="3"/>
<line x1="842.25" y1="396.831" x2="842.25" y2="122.906" stroke="white" stroke-width="3"/>
<line x1="777.625" y1="396.827" x2="777.625" y2="180.892" stroke="white" stroke-width="3"/>
<line x1="710.75" y1="396.836" x2="710.75" y2="232.71" stroke="white" stroke-width="3"/>
<line x1="642.75" y1="396.841" x2="642.75" y2="270.941" stroke="white" stroke-width="3"/>
<line x1="578" y1="396.822" x2="578" y2="305.519" stroke="white" stroke-width="3"/>
<line x1="521.188" y1="396.824" x2="521.188" y2="326.49" stroke="white" stroke-width="3"/>
<line x1="465.25" y1="396.837" x2="465.25" y2="341.285" stroke="white" stroke-width="3"/>
<line x1="418.25" y1="396.841" x2="418.25" y2="351.152" stroke="white" stroke-width="3"/>
<line x1="372.75" y1="396.824" x2="372.75" y2="358.571" stroke="white" stroke-width="3"/>
<line x1="332.25" y1="396.825" x2="332.25" y2="365.973" stroke="white" stroke-width="3"/>
<line x1="293.5" y1="403.038" x2="293.5" y2="370.845" stroke="white" stroke-width="3"/>
<line x1="257.5" y1="396.822" x2="257.5" y2="374.613" stroke="white" stroke-width="3"/>
<line x1="218.25" y1="396.828" x2="218.25" y2="380.776" stroke="white" stroke-width="3"/>
<path d="M960 2C1189.83 239.928 1296.95 386.611 1917.5 385.718" stroke="#181F27" stroke-width="5"/>
<line y1="-1.5" x2="341.773" y2="-1.5" transform="matrix(0 -1 -1 0 1011.76 396.822)" stroke="#181F27" stroke-width="3"/>
<line y1="-1.5" x2="273.925" y2="-1.5" transform="matrix(0 -1 -1 0 1073.75 396.831)" stroke="#181F27" stroke-width="3"/>
<line y1="-1.5" x2="215.935" y2="-1.5" transform="matrix(0 -1 -1 0 1138.38 396.827)" stroke="#181F27" stroke-width="3"/>
<line y1="-1.5" x2="164.127" y2="-1.5" transform="matrix(0 -1 -1 0 1205.25 396.836)" stroke="#181F27" stroke-width="3"/>
<line y1="-1.5" x2="125.9" y2="-1.5" transform="matrix(0 -1 -1 0 1273.25 396.841)" stroke="#181F27" stroke-width="3"/>
<line y1="-1.5" x2="91.3026" y2="-1.5" transform="matrix(0 -1 -1 0 1338 396.822)" stroke="#181F27" stroke-width="3"/>
<line y1="-1.5" x2="70.3337" y2="-1.5" transform="matrix(0 -1 -1 0 1394.81 396.824)" stroke="#181F27" stroke-width="3"/>
<line y1="-1.5" x2="55.5527" y2="-1.5" transform="matrix(0 -1 -1 0 1450.75 396.837)" stroke="#181F27" stroke-width="3"/>
<line y1="-1.5" x2="45.6888" y2="-1.5" transform="matrix(0 -1 -1 0 1497.75 396.841)" stroke="#181F27" stroke-width="3"/>
<line y1="-1.5" x2="38.2533" y2="-1.5" transform="matrix(0 -1 -1 0 1543.25 396.824)" stroke="#181F27" stroke-width="3"/>
<line y1="-1.5" x2="30.8516" y2="-1.5" transform="matrix(0 -1 -1 0 1583.75 396.825)" stroke="#181F27" stroke-width="3"/>
<line y1="-1.5" x2="32.1932" y2="-1.5" transform="matrix(0 -1 -1 0 1622.5 403.038)" stroke="#181F27" stroke-width="3"/>
<line y1="-1.5" x2="22.2087" y2="-1.5" transform="matrix(0 -1 -1 0 1658.5 396.822)" stroke="#181F27" stroke-width="3"/>
<line y1="-1.5" x2="16.0515" y2="-1.5" transform="matrix(0 -1 -1 0 1697.75 396.828)" stroke="#181F27" stroke-width="3"/>
</svg>
